<?xml version="1.0" standalone="no"?>
<!DOCTYPE svg PUBLIC "-//W3C//DTD SVG 1.1//EN" "http://www.w3.org/Graphics/SVG/1.1/DTD/svg11.dtd" >
<svg xmlns="http://www.w3.org/2000/svg">
<metadata>
<json>
<![CDATA[
{
	"fontFamily": "dficon",
	"majorVersion": 1,
	"minorVersion": 0,
	"version": "Version 1.0",
	"fontId": "dficon",
	"psName": "dficon",
	"subFamily": "Regular",
	"fullName": "dficon",
	"description": "Font generated by IcoMoon."
}
]]>
</json>
</metadata>
<defs>
<font id="dficon" horiz-adv-x="1024">
<font-face units-per-em="1024" ascent="960" descent="-64" />
<missing-glyph horiz-adv-x="1024" />
<glyph unicode="&#x20;" horiz-adv-x="512" d="" />
<glyph unicode="&#xe900;" glyph-name="it732_Calendar-check" data-tags="it732_Calendar-check" d="M451.6 144c0-17.8-14.4-32-32-32h-288.8c-28.4 0-51.6 23.6-51.6 52.4v599.2c0 28.8 23.2 52.4 51.6 52.4h140.4v32c0 17.8 14.4 32 32 32s32-14.4 32-32v-32h255.8v32c0 17.8 14.4 32 32 32s32-14.4 32-32v-32h140.4c28.4 0 51.6-23.6 51.6-52.4v-342.4c0-17.8-14.4-32-32-32s-32 14.4-32 32v330.6h-127.8v-32c0-17.8-14.4-32-32-32s-32 14.4-32 32v32h-256v-32c0-17.8-14.4-32-32-32s-32 14.4-32 32v32h-128v-575.8h276.2c17.8 0 32.2-14.4 32.2-32zM591 592c0 17.6-14.4 32-32 32v0c-17.6 0-32-14.4-32-32s14.4-32 32-32c17.6 0 32 14.2 32 32zM687.2 624v0c-17.6 0-32-14.4-32-32s14.4-32 32-32c17.6 0 32 14.4 32 32s-14.2 32-32 32zM430.2 624c-17.6 0-32-14.4-32-32v0c0-17.6 14.4-32 32-32s32 14.4 32 32v0c0 17.6-14.4 32-32 32zM538 479.8v0c-17.6 0-32-14.4-32-32s14.4-32 32-32c17.6 0 32 14.4 32 32s-14.4 32-32 32zM687.2 479.8v0c-17.6 0-32-14.4-32-32s14.4-32 32-32c17.6 0 32 14.4 32 32s-14.2 32-32 32zM420.6 447.8c0 17.6-14.4 32-32 32s-32-14.4-32-32v0c0-17.6 14.4-32 32-32s32 14.4 32 32v0zM271.2 447.8c0 17.6-14.4 32-32 32s-32-14.4-32-32v0c0-17.6 14.4-32 32-32s32 14.4 32 32v0zM388.6 335.8c-17.6 0-32-14.4-32-32s14.4-32 32-32c17.6 0 32 14.4 32 32s-14.4 32-32 32zM538 335.8v0c-17.6 0-32-14.4-32-32s14.4-32 32-32c17.6 0 32 14.4 32 32s-14.4 32-32 32zM239.2 335.8c-17.6 0-32-14.4-32-32s14.4-32 32-32 32 14.4 32 32-14.4 32-32 32zM935.4 325c-12.4 12.4-32.8 12.4-45.2 0l-231.8-231.8-108.6 108.6c-12.4 12.4-32.8 12.4-45.2 0s-12.4-32.8 0-45.2l131.2-131.2c6.2-6.2 14.4-9.4 22.6-9.4s16.4 3.2 22.6 9.4l254.4 254.4c12.6 12.4 12.6 32.6 0 45.2z" />
<glyph unicode="&#xe901;" glyph-name="it732_Clock" data-tags="it732_Clock" d="M512 864c-229.4 0-416-186.6-416-416s186.6-416 416-416 416 186.6 416 416-186.6 416-416 416zM512 96c-194 0-352 158-352 352s158 352 352 352 352-158 352-352-158-352-352-352zM536.6 703.4v-264.4c0-10.4-5-20.2-13.4-26.2l-152.6-108.2c-5.6-4-12-6-18.4-6-10 0-19.8 4.6-26.2 13.4-10.2 14.4-6.8 34.4 7.6 44.6l139 98.6v248c0 17.6 14.4 32 32 32 17.8 0.2 32-14 32-31.8z" />
<glyph unicode="&#xe902;" glyph-name="it732_Cog-2" data-tags="it732_Cog-2-24" d="M901.2 534.4l-82.8 13.6c-5 15.6-11.4 30.8-18.6 45.4l48.8 69c9 12.8 7.6 30-3.4 41l-77.2 77.4c-11 11-28.4 12.6-41.2 3.4l-68.8-48.8c-14.6 7.4-29.6 13.6-45.2 18.6l-13.6 83c-2.6 15.4-16 26.8-31.6 26.8h-111.2c-15.6 0-29-11.4-31.6-26.8l-13.6-83c-15.6-5-30.6-11.4-45.2-18.6l-68.8 48.8c-12.8 9-30.2 7.6-41.2-3.4l-77.2-77.4c-11-11-12.4-28.4-3.4-41l48.8-69c-7.4-14.6-13.6-29.8-18.6-45.4l-82.8-13.6c-15.4-2.6-26.8-16-26.8-31.6v-109.6c0-15.6 11.4-29 26.8-31.6l82.8-13.6c5.2-15.8 11.4-31 19-45.8l-49-68.4c-9.2-12.8-7.6-30.2 3.4-41.2l77.2-77.4c11-11.2 28.6-12.6 41.4-3.4l68.2 49c14.6-7.4 29.6-13.6 45-18.8l14.2-83.4c2.6-15.4 16-26.6 31.6-26.6h111.2c15.6 0 29 11.2 31.6 26.6l14.2 83.4c15.6 5 30.6 11.4 45 18.8l68.2-49c12.8-9.2 30.2-7.8 41.4 3.4l77.2 77.4c11 11 12.4 28.6 3.4 41.2l-49 68.4c7.4 14.8 13.8 30 19 45.8l82.8 13.6c15.4 2.6 26.8 16 26.8 31.6v109.6c-0.4 15.6-11.8 29-27.2 31.6zM864 420.4l-75.8-12.4c-12.6-2-22.6-11.4-25.8-23.8-6-24-15.6-46.8-28-68-6.4-11-6-24.6 1.4-35l44.8-62.6-39-39-62.4 44.8c-10.4 7.4-24.2 8-35 1.6-20.8-12.4-43.4-21.8-67.2-28-12.2-3.2-21.4-13.2-23.6-25.6l-13-76.4h-57.2l-13 76.4c-2.2 12.4-11.4 22.4-23.6 25.6-23.6 6.2-46.2 15.6-67.2 28-11 6.6-24.8 6-35-1.6l-62.4-44.8-39 39 44.8 62.6c7.4 10.4 8 24 1.4 35-12.6 21.2-22 44-28 68-3.2 12.4-13.2 21.6-25.8 23.8l-75.4 12.4v55.2l75.8 12.4c12.6 2 22.6 11.4 25.8 23.8 6 23.8 15.4 46.4 27.8 67.4 6.4 10.8 5.8 24.4-1.4 34.8l-44.8 63.2 39.2 39.2 63-44.8c10.4-7.4 24-7.8 34.8-1.4 20.8 12.4 43.4 21.8 67.2 27.8 12.4 3.2 21.6 13.2 23.6 25.8l12.4 76.2h56.8l12.4-76.2c2-12.6 11.4-22.6 23.6-25.8 23.8-6 46.4-15.4 67.2-27.8 10.8-6.4 24.6-6 34.8 1.4l63 44.8 39.2-39.2-44.4-63.2c-7.2-10.2-7.8-24-1.4-34.8 12.4-21 21.8-43.6 27.8-67.4 3.2-12.4 13.2-21.6 25.8-23.8l75.8-12.4v-55.2zM515.4 609.2c-1.2 0-2.2 0.2-3.4 0-1.2 0-2.4 0-3.4 0-87.6-2.4-158.4-74.2-158.4-161.2s71-158.8 158.4-161.2c1.2 0 2.2-0.2 3.4 0 0.4 0 0.6 0 1 0 0.8 0 1.6 0 2.4 0 87.6 2.4 158.4 74.2 158.4 161.2 0.2 87-70.8 158.8-158.4 161.2zM512.4 350.8c-0.2 0-0.4 0-0.4 0-0.2 0-0.4 0-0.4 0-53.8 0.8-97.4 44.4-97.4 97.2s43.8 96.4 97.4 97.2c0.2 0 0.4 0 0.4 0 0.2 0 0.4 0 0.4 0 53.8-0.8 97.4-44.4 97.4-97.2 0.2-52.8-43.6-96.4-97.4-97.2z" />
<glyph unicode="&#xe903;" glyph-name="it732_Cog" data-tags="it732_Cog" d="M512 604c-89 0-161.4-70-161.4-155.8s72.4-155.8 161.4-155.8c89 0 161.4 70 161.4 155.8s-72.4 155.8-161.4 155.8zM512 356.2c-53.8 0-97.4 41.2-97.4 91.8s43.6 92 97.4 92 97.4-41.2 97.4-91.8-43.8-92-97.4-92zM901.6 383.8l-49.4 27.2c3 24.8 3 49.6 0 74.4l49.2 27.2c21 11.6 31.2 36.4 24 59.2l-0.2 0.4c-19 58.6-52.2 113.4-95.8 158.8-16.4 16.8-42 20.8-62.4 9.4l-50.6-28c-21.4 15.4-44.6 28.2-69.2 38.4v53.8c0 23.8-17 44.6-40.6 49.4-62.2 13.2-127.8 13.2-189.8 0-23.6-5-40.6-25.8-40.6-49.4v-54c-24.6-10.2-47.6-23-69.2-38.4l-50.6 28c-20.6 11.4-46.4 7.4-62.4-9.6-43.6-45.2-76.8-100-95.8-158.6-7.6-23 2.6-48 23.8-59.8l49.4-27.2c-3-24.8-3-49.6 0-74.4l-49.2-27.2c-21-11.6-31.2-36.4-24.2-59.2l0.2-0.4c19-58.6 52.2-113.4 95.8-158.8 16.4-16.8 42-20.6 62.4-9.4l50.6 28c21.4-15.4 44.6-28.2 69.2-38.4v-54c0-23.8 17-44.6 40.6-49.4 31.2-6.6 63-10 95-10s63.8 3.4 94.8 10c23.6 5 40.6 25.8 40.6 49.4v54c24.6 10.2 47.6 23 69.2 38.4l50.8-28c20.6-11.4 46.4-7.4 62.4 9.6 43.6 45.2 76.8 100 95.8 158.8l0.4 1c6.8 23.2-3.2 47.4-24.2 58.8zM790.2 216.4l-79.6 44-16.8-13.6c-26.2-21.4-56-37.8-88.4-48.8l-21.6-7.4v-88c-47-8.8-96-8.8-143 0v88l-21.8 7.4c-32.4 10.8-62.2 27.2-88.2 48.8l-16.8 13.8-79.8-44c-31.2 34.2-55.6 74-71 116.6l79.4 44-4.4 22.8c-6.2 32-6.2 64.6 0 96.6l4.4 22.8-79.4 44c15.4 42.6 39.8 82.6 71 116.6l79.4-44 16.8 13.6c26.2 21.4 56 37.8 88.4 48.8l21.6 7.4v88c47 8.8 96 8.8 143 0v-87.8l21.8-7.4c32.4-10.8 62.2-27.2 88.2-48.8l16.8-13.8 79.8 44c31.2-34.2 55.6-74 71-116.6l-79.4-44 4.4-22.8c6.2-32 6.2-64.6 0-96.6l-4.4-22.8 79.6-44c-15.6-42.8-39.8-82.8-71-116.8z" />
<glyph unicode="&#xe904;" glyph-name="it732_Copy" data-tags="it732_Copy" d="M710.4 96c0-17.6-14.4-32-32-32h-470.8c-17.6 0-32 14.4-32 32v576c0 17.6 14.4 32 32 32s32-14.4 32-32v-544h438.8c17.6 0 32-14.4 32-32zM848.4 640.8v-416.8c0-17.6-14.4-32-32-32h-480.8c-17.6 0-32 14.4-32 32v576c0 17.6 14.4 32 32 32h320.2c1 0 2.2 0 3.2-0.2 0.6 0 1.4-0.2 2-0.4 0.4 0 0.8 0 1-0.2 0.8-0.2 1.6-0.4 2.4-0.6 0.2 0 0.4 0 0.6-0.2 0.8-0.2 1.6-0.6 2.4-0.8 0.2 0 0.4-0.2 0.6-0.2 0.8-0.4 1.4-0.6 2.2-1 0.2-0.2 0.4-0.2 0.8-0.4 0.6-0.4 1.2-0.8 1.8-1 0.2-0.2 0.6-0.4 0.8-0.6 0.6-0.4 1-0.8 1.6-1.2 0.4-0.2 0.6-0.4 1-0.6 0.6-0.4 1-0.8 1.4-1.4 0.2-0.2 0.6-0.4 0.8-0.8l160.6-159.2c6-5.6 9.4-13.8 9.4-22.4zM687.8 672.8h50.8l-50.8 50.4v-50.4zM784.4 256v352.8h-128.6c-17.6 0-32 14.4-32 32v127.2h-256.2v-512h416.8z" />
<glyph unicode="&#xe905;" glyph-name="it732_Creditcard" data-tags="it732_Creditcard" d="M896 735.8h-768c-17.6 0-31.8-14.2-31.8-31.8v-512c0-17.6 14.2-31.8 31.8-31.8h768c17.6 0 31.8 14.2 31.8 31.8v512c0 17.6-14.2 31.8-31.8 31.8zM864.2 672.2v-63.2h-704.4v63.2h704.4zM159.8 223.8v289.2h704.4v-289.2h-704.4zM607.8 352.2c0-17.6-14.2-31.8-31.8-31.8h-319.6c-17.6 0-31.8 14.2-31.8 31.8s14.2 31.8 31.8 31.8h319.6c17.6 0 31.8-14.2 31.8-31.8zM784 352.2c0-26.6-21.4-48-48-48s-48 21.4-48 48 21.4 48 48 48v0c26.6 0 48-21.4 48-48z" />
<glyph unicode="&#xe906;" glyph-name="it732_Doc-clock" data-tags="it732_Doc-clock" d="M624 688c0-17.6-14.4-32-32-32h-320c-17.6 0-32 14.4-32 32s14.4 32 32 32h320c17.6 0 32-14.4 32-32zM592 592h-320c-17.6 0-32-14.4-32-32s14.4-32 32-32h320c17.6 0 32 14.4 32 32s-14.4 32-32 32zM432 464h-160c-17.6 0-32-14.4-32-32s14.4-32 32-32h160c17.6 0 32 14.4 32 32s-14.4 32-32 32zM368 176h-192v640h512v-256c0-17.6 14.4-32 32-32s32 14.4 32 32v268c0 28.6-23.4 52-52 52h-536c-28.6 0-52-23.4-52-52v-664c0-28.6 23.4-52 52-52h204c17.6 0 32 14.4 32 32s-14.4 32-32 32zM912 240c0-123.6-100.4-224-224-224s-224 100.4-224 224 100.4 224 224 224 224-100.4 224-224zM848 240c0 88.2-71.8 160-160 160s-160-71.8-160-160 71.8-160 160-160 160 71.8 160 160zM688 348.8c-17.6 0-32-14.4-32-32v-66.8l-27.6-24.4c-13.2-11.6-14.6-32-2.8-45.2 6.4-7.2 15.2-10.8 24-10.8 7.6 0 15 2.6 21.2 8l38.4 33.8c6.8 6 10.8 14.8 10.8 24v81.4c0 17.6-14.4 32-32 32z" />
<glyph unicode="&#xe907;" glyph-name="it732_Doc-cog-2" data-tags="it732_Doc-cog-2" d="M623.4 688c0-17.6-14.4-32-32-32h-320c-17.6 0-32 14.4-32 32s14.4 32 32 32h320c17.8 0 32-14.4 32-32zM591.4 592h-320c-17.6 0-32-14.4-32-32s14.4-32 32-32h320c17.6 0 32 14.4 32 32s-14.2 32-32 32zM431.4 464h-160c-17.6 0-32-14.4-32-32s14.4-32 32-32h160c17.6 0 32 14.4 32 32s-14.2 32-32 32zM367.4 176h-192v640h512v-256c0-17.6 14.4-32 32-32s32 14.4 32 32v268c0 28.6-23.4 52-52 52h-536c-28.6 0-52-23.4-52-52v-664c0-28.6 23.4-52 52-52h204c17.6 0 32 14.4 32 32s-14.2 32-32 32zM904.6 267.4v-54.8c0-11.8-8.6-21.8-20-23.6l-36.6-6c-1.8-5.2-4-10.2-6.2-15l21.6-30.2c6.8-9.6 5.8-22.6-2.6-31l-38.6-38.8c-8.4-8.4-21.4-9.4-31-2.6l-30.2 21.8c-4.8-2.2-9.6-4.2-14.6-6l-6.4-37.2c-2-11.6-12-20-23.6-20h-55.6c-11.8 0-21.8 8.4-23.6 20l-6.2 37c-5 1.8-9.8 3.8-14.6 6l-30.4-21.6c-9.6-6.8-22.6-5.8-31 2.6l-38.6 38.8c-8.2 8.4-9.4 21.4-2.6 31l21.6 30.2c-2.4 5-4.4 10-6.2 15l-36.6 6c-11.6 2-20 12-20 23.6v54.8c0 11.8 8.6 21.8 20 23.6l36.6 6c1.8 5 3.8 10 6.2 14.8l-21.6 30.6c-6.8 9.6-5.6 22.6 2.6 30.8l38.6 38.8c8.2 8.2 21.4 9.4 30.8 2.6l30.4-21.6c4.8 2.2 9.6 4.2 14.6 6l6 36.8c2 11.6 12 20.2 23.6 20.2h55.6c11.8 0 21.8-8.6 23.6-20.2l6-36.8c5-1.8 9.8-3.8 14.6-6l30.4 21.6c9.6 6.8 22.6 5.6 30.8-2.6l38.6-38.8c8.2-8.2 9.4-21.2 2.6-30.8l-20.8-30.4c2.2-4.8 4.4-9.8 6.2-14.8l36.6-6c11.4-2 20-12 20-23.8zM856.6 247l-31.2 5.2c-9.4 1.6-17 8.6-19.4 17.8-2.8 11.2-7.2 21.8-13 31.6-4.8 8.2-4.4 18.4 1 26l18.4 26.2-10 10-26-18.4c-7.8-5.6-18-6-26.2-1-9.8 5.8-20.4 10.2-31.6 13-9.2 2.4-16.2 10-17.8 19.4l-4.8 31.2h-14.8l-5.2-31.4c-1.6-9.4-8.6-17-17.8-19.4-11.2-2.8-21.8-7.2-31.6-13-8.2-4.8-18.4-4.4-26.2 1l-26 18.4-10-10 18.4-26.2c5.4-7.8 5.8-18 1-26-5.8-9.8-10.2-20.4-13-31.6-2.4-9.2-10-16.2-19.4-17.8l-31.2-5.2v-14l31.2-5.2c9.4-1.6 17-8.6 19.4-17.8 2.8-11.2 7.2-22 13.2-31.8 4.8-8.2 4.4-18.4-1.2-26.2l-18.4-25.8 9.8-9.8 25.6 18.4c7.8 5.6 18 6 26.4 1.2 9.8-5.8 20.4-10.2 31.4-13.2 9.2-2.4 16-9.8 17.6-19.2l5.4-31.6h15l5.4 31.6c1.6 9.4 8.6 16.8 17.6 19.2 11.2 2.8 21.6 7.2 31.4 13.2 8.2 4.8 18.6 4.4 26.4-1.2l25.6-18.4 9.8 9.8-17.8 26c-5.6 7.8-6 18-1.2 26.2 5.8 10 10.4 20.6 13.2 31.8 2.4 9.2 10 16.2 19.4 17.8l31.2 5.2v14zM777.6 240c0-47.8-38.8-87.2-86.8-88.6-0.6 0-1 0-1.6 0-0.2 0-0.4 0-0.4 0-0.8 0-1.4 0-2.2 0-48 1.4-86.8 40.8-86.8 88.6s38.8 87.2 86.8 88.6c0.8 0 1.4 0 2.2 0s1.4 0 2.2 0c47.6-1.4 86.6-40.8 86.6-88.6zM729.6 240c0 22-18.4 40.2-40.8 40.6 0 0 0 0-0.2 0 0 0 0 0-0.2 0-22.6-0.4-40.8-18.6-40.8-40.6s18.4-40.2 40.8-40.6c0 0 0.2 0 0.2 0 22.6 0.4 41 18.6 41 40.6z" />
<glyph unicode="&#xe908;" glyph-name="it732_Doc-cog" data-tags="it732_Doc-cog" d="M624 688c0-17.6-14.4-32-32-32h-320c-17.6 0-32 14.4-32 32s14.4 32 32 32h320c17.6 0 32-14.4 32-32zM592 592h-320c-17.6 0-32-14.4-32-32s14.4-32 32-32h320c17.6 0 32 14.4 32 32s-14.4 32-32 32zM432 464h-160c-17.6 0-32-14.4-32-32s14.4-32 32-32h160c17.6 0 32 14.4 32 32s-14.4 32-32 32zM368 176h-192v640h512v-256c0-17.6 14.4-32 32-32s32 14.4 32 32v268c0 28.6-23.4 52-52 52h-536c-28.6 0-52-23.4-52-52v-664c0-28.6 23.4-52 52-52h204c17.6 0 32 14.4 32 32s-14.4 32-32 32zM776.8 240c0-47.4-39.8-85.8-88.6-85.8-49 0-88.6 38.6-88.6 85.8 0 47.4 39.8 85.8 88.6 85.8 48.8 0.2 88.6-38.4 88.6-85.8zM728.8 240c0 20.8-18.2 37.8-40.6 37.8s-40.6-17-40.6-37.8 18.2-37.8 40.6-37.8 40.6 17 40.6 37.8zM902.8 176.4c0-0.2-0.2-0.6-0.2-0.8-9.8-30.4-27-59-49.8-82.4-10.6-11-27.2-13.6-40.8-6.2l-21 11.6c-8.6-5.8-17.6-10.8-27-15v-21.8c0-15.6-11.2-29.4-26.8-32.6-16-3.4-32.6-5.2-49-5.2-16.6 0-33.2 1.8-49.2 5.2-15.4 3.2-26.6 16.8-26.6 32.6v21.6c-9.4 4.2-18.6 9.2-27.2 15l-21-11.6c-13.4-7.4-30.2-5-40.8 6.2-22.6 23.6-40 52-49.8 82.4 0 0.2 0 0.2-0.2 0.4-4.6 15 2 31.4 15.8 39l20 11c-0.8 9.4-0.8 18.8 0 28.2l-20 11c-14 7.6-20.6 24.2-15.6 39.4 9.8 30.4 27 58.8 49.8 82.2 10.6 11 27.2 13.6 40.8 6.2l21-11.6c8.6 5.8 17.6 10.8 27 15v21.8c0 15.6 11.2 29.4 26.6 32.6 32 6.8 66 6.8 98.2 0 15.4-3.2 26.6-16.8 26.6-32.6v-21.6c9.4-4.2 18.6-9.2 27.2-15l21 11.6c13.4 7.4 30.2 5 40.8-6.2 22.6-23.6 40-52 49.8-82.4 0-0.2 0-0.2 0.2-0.4 4.6-15-2-31.4-15.8-39l-20-11c0.8-9.4 0.8-18.8 0-28.2l20-11c13.6-7.4 20.2-23.4 16-38.4zM852.6 178.8l-23.6 13c-9.2 5-14 15.4-12 25.6 3 15 3 30.2 0 45.2-2 10.2 2.8 20.6 12 25.6l23.4 13c-6.6 16-15.8 31-27.2 44.6l-24.8-13.6c-8.6-4.8-19.2-3.8-26.8 2.4-12.2 10-26.2 17.8-41.6 23-9.8 3.2-16.4 12.4-16.4 22.8v25.6c-18.4 2.8-37.2 2.8-55.6 0v-26c0-10.2-6.6-19.4-16.2-22.8-15.4-5.2-29.4-13-41.8-23-7.6-6.2-18.2-7.2-26.8-2.4l-24.6 13.6c-11.4-13.4-20.6-28.4-27.2-44.6l23.4-13c9.2-5 14-15.4 12-25.6-3-15-3-30.2 0-45.2 2-10.2-2.8-20.6-12-25.6l-23.4-13c6.6-16 15.8-31 27.2-44.6l24.8 13.6c8.6 4.8 19.2 3.8 26.8-2.4 12.2-10 26.2-17.8 41.6-23 9.8-3.2 16.4-12.4 16.4-22.8v-25.8c18.4-2.8 37.2-2.8 55.6 0v25.8c0 10.2 6.6 19.4 16.2 22.8 15.4 5.2 29.4 13 41.8 23 7.6 6.2 18.2 7.2 26.8 2.4l24.8-13.6c11.4 14 20.6 29 27.2 45z" />
<glyph unicode="&#xe909;" glyph-name="it732_Envelope" data-tags="it732_Envelope" d="M927.8 707.2c0 0 0 0.2 0 0.2-0.2 1-0.2 2-0.4 2.8 0 0.4-0.2 0.8-0.4 1.2-0.2 0.6-0.2 1.2-0.4 1.8-0.2 0.4-0.4 1-0.6 1.4s-0.4 1-0.6 1.4c-0.2 0.6-0.6 1-0.8 1.6-0.2 0.4-0.4 0.8-0.6 1.2-0.4 0.8-1 1.8-1.6 2.6 0 0 0 0.2-0.2 0.2-0.6 0.8-1.2 1.8-2 2.6 0 0 0 0 0 0-0.2 0.2-0.4 0.4-0.6 0.6-0.4 0.6-1 1-1.4 1.6-0.4 0.4-0.8 0.8-1.2 1-0.4 0.4-0.8 0.6-1.2 1s-1 0.8-1.4 1c-0.4 0.2-0.8 0.6-1 0.8-0.4 0.4-1 0.6-1.4 1-0.4 0.2-0.8 0.4-1.2 0.6s-1 0.4-1.4 0.6c-0.4 0.2-1 0.4-1.4 0.6s-1 0.4-1.4 0.4c-0.6 0.2-1 0.4-1.6 0.6-0.4 0.2-1 0.2-1.4 0.4-0.6 0.2-1.2 0.2-1.6 0.4-0.6 0.2-1 0.2-1.6 0.2s-1 0.2-1.6 0.2c-0.8 0-1.6 0-2.4 0.2-0.2 0-0.6 0-0.8 0h-0.2c0 0 0 0 0 0h-767.2c0 0 0 0 0 0h-0.2c-0.2 0-0.6 0-0.8 0-0.8 0-1.4 0-2.2-0.2-0.6 0-1-0.2-1.6-0.2s-1-0.2-1.6-0.2c-0.6-0.2-1.2-0.2-1.8-0.4-0.4-0.2-0.8-0.2-1.4-0.4s-1-0.4-1.6-0.6c-0.4-0.2-0.8-0.4-1.4-0.4-0.4-0.2-1-0.4-1.4-0.6s-1-0.4-1.4-0.6c-0.4-0.2-0.8-0.4-1.2-0.8-0.4-0.2-1-0.6-1.4-0.8s-0.8-0.6-1-0.8c-0.4-0.4-1-0.6-1.4-1s-0.8-0.6-1.2-1c-0.4-0.4-0.8-0.6-1.2-1-0.6-0.6-1-1-1.4-1.6-0.2-0.2-0.4-0.4-0.6-0.6 0 0 0 0 0 0-0.6-0.8-1.4-1.6-2-2.6 0 0 0-0.2-0.2-0.2-0.6-0.8-1-1.6-1.6-2.6-0.2-0.4-0.4-0.8-0.6-1.2-0.2-0.6-0.6-1-0.8-1.6-0.2-0.4-0.4-1-0.6-1.4s-0.4-1-0.6-1.4c-0.2-0.6-0.4-1.2-0.4-1.8-0.2-0.4-0.2-0.8-0.4-1.2-0.2-1-0.4-2-0.4-2.8 0 0 0-0.2 0-0.2-0.2-1-0.2-2.2-0.2-3.2 0 0 0 0 0 0v-512c0-17.6 14.4-32 32-32h768c17.6 0 32 14.4 32 32v512c0 0 0 0 0 0 0.4 1.2 0.4 2.2 0.2 3.2zM807.6 672l-295.6-246.4-295.6 246.4h591.2zM160 224v411.6l331.6-276.2c6-5 13.2-7.4 20.4-7.4s14.6 2.4 20.4 7.4l331.6 276.2v-411.6h-704z" />
<glyph unicode="&#xe90a;" glyph-name="it732_File" data-tags="it732_File" d="M832 624c0 0.2 0 0.6 0 0.8 0 0.8 0 1.6-0.2 2.4 0 0.8-0.2 1.4-0.4 2.2 0 0.4 0 0.6-0.2 1-0.2 0.8-0.4 1.8-0.6 2.6 0 0.2 0 0.4-0.2 0.4-0.2 0.8-0.6 1.8-1 2.6 0 0.2 0 0.2-0.2 0.4-0.4 0.8-0.8 1.6-1 2.4 0 0.2-0.2 0.4-0.2 0.6-0.4 0.6-0.8 1.4-1.2 2-0.2 0.2-0.2 0.4-0.4 0.6-0.4 0.6-0.8 1.2-1.4 1.8-0.2 0.2-0.4 0.6-0.6 0.8-0.6 0.6-1.2 1.4-1.8 2-0.2 0.2-0.2 0.2-0.4 0.4l-192 192c-0.2 0.2-0.2 0.2-0.4 0.4-0.6 0.6-1.2 1.2-2 1.8-0.2 0.2-0.4 0.4-0.8 0.6-0.6 0.4-1.2 1-1.8 1.4-0.2 0.2-0.4 0.2-0.6 0.4-0.6 0.4-1.4 0.8-2 1.2-0.2 0-0.4 0.2-0.4 0.2-0.8 0.4-1.6 0.8-2.4 1.2-0.2 0-0.2 0-0.4 0.2-0.8 0.4-1.8 0.6-2.6 1-0.2 0-0.2 0-0.4 0-0.8 0.2-1.8 0.4-2.6 0.6-0.2 0-0.6 0-0.8 0.2-0.8 0.2-1.6 0.2-2.4 0.4-1 0.2-2.2 0.2-3.2 0.2h-383.4c-17.6 0-32-14.4-32-32v-736c0-17.6 14.4-32 32-32h575.4c17.6 0 32 14.4 32 32l0.6 543.2c0 0 0 0 0 0s0 0 0 0zM640 738.8l82.8-82.8h-82.8v82.8zM256 112v672h320v-160c0-17.6 14.4-32 32-32h160l-0.6-480h-511.4z" />
<glyph unicode="&#xe90b;" glyph-name="it732_Funnel" data-tags="it732_Funnel" d="M885.8 790.8c-10.2 24-35 39.4-62.8 39.4h-622c-28.2 0-53-15.8-63-40-9.4-22.4-4.2-47.4 13.2-65 0.4-0.4 0.8-0.8 1.2-1.2l251.6-225.4v-265.4c0-18.2 8.8-35.2 23.4-45.8l148.2-115.2c5.4-4.2 12-6.4 18.6-6.4 4.6 0 9 1 13.4 3 10.4 5 17 15.6 17 27.2v402.6l247.4 226.2c0.6 0.4 1 1 1.6 1.6 17 17.8 21.6 42.4 12.2 64.4zM574 534.4c-6.2-5.8-9.8-13.8-9.8-22.4v-354.2l-99.4 77.2v277c0 8.6-3.6 16.8-10 22.6l-260.4 233c1 0.8 3 2 6.6 2h621.8c3.4 0 5.4-1 6.4-2l-255.2-233.2z" />
<glyph unicode="&#xe90c;" glyph-name="it732_Home" data-tags="it732_Home" d="M918.6 438.6l-96 96c0 0 0 0 0 0l-288 288c-12.4 12.4-32.8 12.4-45.2 0l-384-384c-12.4-12.4-12.4-32.8 0-45.2 6.2-6.2 14.4-9.4 22.6-9.4s16.4 3.2 22.6 9.4l41.4 41.4 0.6-338.8c0-17.6 14.4-32 32-32h191.4c17.6 0 32 14.4 32 32v256h128v-256c0-17.6 14.4-32 32-32h192c17.6 0 32 14.4 32 32v338.8l41.4-41.4c12.4-12.4 32.8-12.4 45.2 0 12.6 12.4 12.6 32.8 0 45.2zM768 128h-128v256c0 17.6-14.4 32-32 32h-192c-17.6 0-32-14.4-32-32v-256h-127.4l-0.6 370.8 256 256 256-256v-370.8z" />
<glyph unicode="&#xe90d;" glyph-name="it732_Mappin" data-tags="it732_Mappin" d="M512 864c-176.4 0-320-143.6-320-320 0-50 11.2-97.8 33.2-142.2 48.2-97 253.2-347.4 262-358 6-7.4 15.2-11.8 24.8-11.8s18.6 4.2 24.8 11.8c8.8 10.6 213.8 261 262 358 22 44.4 33.2 92.2 33.2 142.2 0 176.4-143.6 320-320 320zM741.4 430.2c-35.6-71.6-172.8-245-229.4-315.4-56.6 70.4-193.8 243.8-229.4 315.4-17.6 35.6-26.6 73.8-26.6 113.8 0 141.2 114.8 256 256 256s256-114.8 256-256c0-40-9-78.2-26.6-113.8zM512 704c-88.2 0-160-71.8-160-160s71.8-160 160-160 160 71.8 160 160-71.8 160-160 160zM512 448c-53 0-96 43-96 96s43 96 96 96 96-43 96-96-43-96-96-96z" />
<glyph unicode="&#xe90e;" glyph-name="it732_Money" data-tags="it732_Money" d="M928 785.2h-705.8c-17.8 0-32.4-14.4-32.4-32.4v-480.6c0-17.8 14.4-32.4 32.4-32.4h705.8c17.8 0 32.4 14.4 32.4 32.4v480.8c0 17.8-14.6 32.2-32.4 32.2zM895.6 304.8h-641v415.8h641v-415.8zM575.2 416.6c53 0 96 43 96 96s-43 96-96 96-96-43-96-96 43-96 96-96zM575.2 544.8c17.6 0 32-14.4 32-32s-14.4-32-32-32-32 14.4-32 32c0 17.6 14.2 32 32 32zM304 512.6c0 26.6 21.4 48 48 48s48-21.4 48-48-21.4-48-48-48c-26.6 0-48 21.6-48 48zM752 512.6c0 26.6 21.4 48 48 48s48-21.4 48-48-21.4-48-48-48c-26.6 0-48 21.6-48 48zM834.8 143c0-17.6-14.4-32-32-32h-706.8c-17.6 0-32 14.4-32 32v511.6c0 17.6 14.4 32 32 32s32-14.4 32-32v-479.6h674.8c17.6 0 32-14.2 32-32z" />
<glyph unicode="&#xe90f;" glyph-name="it732_People" data-tags="it732_People" d="M677.4 445c48.6 0 93.2 20.8 125.6 58.4 30.8 35.8 47.8 83.8 47.8 135s-17 99.2-47.8 135c-32.4 37.8-77 58.6-125.6 58.6s-93-20.8-125.4-58.6c-30.6-35.8-47.4-83.6-47.4-135s16.8-99.2 47.4-135c32.4-37.6 76.8-58.4 125.4-58.4zM677.4 768c62.2 0 109.2-55.6 109.2-129.4s-47-129.4-109.2-129.4c-62 0-108.6 55.6-108.6 129.4s46.6 129.4 108.6 129.4zM672 384c-176.4 0-320-129.2-320-288 0-17.6 14.4-32 32-32h576c17.6 0 32 14.4 32 32 0 158.8-143.6 288-320 288zM418.6 128c17.8 108.4 124.6 192 253.4 192s235.6-83.6 253.4-192h-506.8zM304.2 376c41.4 0 79.6 17.8 107.2 49.8 26.2 30.4 40.4 71 40.4 114.4s-14.4 84-40.4 114.4c-27.6 32.2-65.6 49.8-107.2 49.8-41.4 0-79.4-17.8-107-50-26-30.4-40.2-71-40.2-114.4s14.2-84 40.2-114.2c27.4-32.2 65.4-49.8 107-49.8zM304.2 640.2c47.6 0 83.6-43 83.6-100.2s-36-100.2-83.6-100.2c-47.4 0-83 43-83 100.2s35.6 100.2 83 100.2zM331.8 305.6c0-17.6-14.4-32-32-32-99.8 0-183-62.8-200.4-145.6h140.6c17.6 0 32-14.4 32-32s-14.4-32-32-32h-176c-17.6 0-32 14.4-32 32 0 133.2 120.2 241.6 267.8 241.6 17.6 0 32-14.4 32-32z" />
<glyph unicode="&#xe910;" glyph-name="it732_Person-search" data-tags="it732_Person-search" d="M902.6 86.6l-85.6 85.6c19.6 28.4 31 62.8 31 99.6 0 97-79 176-176 176s-176-79-176-176 79-176 176-176c37 0 71.4 11.4 99.6 31l85.6-85.6c6.2-6.2 14.4-9.4 22.6-9.4s16.4 3.2 22.6 9.4c12.8 12.6 12.8 33 0.2 45.4zM672 160c-61.8 0-112 50.2-112 112s50.2 112 112 112 112-50.2 112-112-50.2-112-112-112zM469.4 477c48.6 0 93.2 20.8 125.6 58.4 30.8 35.8 47.8 83.8 47.8 135s-17 99.2-47.8 135c-32.4 37.8-77 58.6-125.6 58.6s-93-20.8-125.4-58.6c-30.6-35.8-47.4-83.6-47.4-135s16.8-99.2 47.4-135c32.4-37.6 76.8-58.4 125.4-58.4zM469.4 800c62.2 0 109.2-55.6 109.2-129.4s-47-129.4-109.2-129.4c-62 0-108.6 55.6-108.6 129.4s46.6 129.4 108.6 129.4zM496 128c0-17.6-14.4-32-32-32h-320c-17.6 0-32 14.4-32 32 0 73.2 33.4 143 94.2 196.4 58.6 51.4 137.8 83.4 223.2 90.2 17.6 1.4 33-11.8 34.4-29.4s-11.8-33-29.4-34.4c-71.8-5.6-137.8-32.2-186-74.6-37.6-33-61.6-73.4-69.6-116.2h285.2c17.6 0 32-14.4 32-32z" />
<glyph unicode="&#xe911;" glyph-name="it732_Person" data-tags="it732_Person" d="M511.6 447.8c48.6 0 93 20.6 125.4 58 30.8 35.6 47.8 83.2 47.8 134.2s-16.8 98.6-47.6 134c-32.4 37.4-77 58-125.4 58s-93-20.6-125.2-58c-30.6-35.6-47.4-83.2-47.4-134s16.8-98.6 47.4-134c32-37.6 76.6-58.2 125-58.2zM511.6 768c62.2 0 109.2-55 109.2-128s-47-128-109.2-128c-62 0-108.6 55-108.6 128s46.8 128 108.6 128zM765.4 301.6c-64.8 54-152.4 82.4-253.4 82.4s-188.6-28.4-253.4-82.4c-63.6-52.8-98.6-126-98.6-205.6 0-17.6 14.4-32 32-32h640c17.6 0 32 14.4 32 32 0 79.6-35 152.8-98.6 205.6zM226.6 128c7.8 47.8 33 91.2 73 124.4 52.4 43.6 127.8 67.6 212.4 67.6s160-24 212.4-67.6c40-33.2 65.2-76.6 73-124.4h-570.8z" />
<glyph unicode="&#xe912;" glyph-name="it732_Plus" data-tags="it732_Plus" d="M896 448c0-17.6-14.4-32-32-32h-320v-320c0-17.6-14.4-32-32-32s-32 14.4-32 32v320h-320c-17.6 0-32 14.4-32 32s14.4 32 32 32h320v320c0 17.6 14.4 32 32 32s32-14.4 32-32v-320h320c17.6 0 32-14.4 32-32z" />
<glyph unicode="&#xe913;" glyph-name="it732_Refresh-2" data-tags="it732_Refresh-2" d="M932.8 182.8c-4.6-2.4-9.6-3.6-14.6-3.6-11.6 0-22.8 6.4-28.4 17.4l-44 85.4c-24.6-52.2-61-98.8-106-135.2-67-54.2-148-82.8-233.6-82.8-171.6 0-321.4 118.2-364.6 287.2-4.4 17.2 6 34.6 23.2 39s34.6-6 39-23.2c35.6-140.8 160-239 302.4-239 121.8 0 230 71.6 281.4 180.2l-88.8-33.2c-16.6-6.2-35 2.2-41.2 18.8s2.2 35 18.8 41.2l179.6 67 90.8-176.2c7.8-15.6 1.8-35-14-43zM339.6 563.8c17 4.8 27 22.4 22.4 39.4-4.8 17-22.4 27-39.4 22.4l-91.4-25.2c21.6 40.6 51.6 76.4 88 104.2 54.2 41.4 119 63.4 187 63.4s132.6-22 186.8-63.4c52.6-40.2 92.4-97.4 111.8-161.2 5.2-17 23-26.4 40-21.2s26.4 23 21.2 40c-23.4 76.6-71 145.2-134.2 193.6-65.6 49.8-143.6 76.2-225.6 76.2-82.2 0-160.2-26.6-225.8-76.6-43.4-33.2-79.6-76.2-105.4-124.6l-40.2 84.2c-7.6 16-26.6 22.8-42.6 15.2s-22.8-26.6-15.2-42.6l82.6-173.2 180 49.4z" />
<glyph unicode="&#xe914;" glyph-name="it732_Refresh" data-tags="it732_Refresh" d="M960 314c-5.8-4.4-12.6-6.4-19.2-6.4-9.8 0-19.2 4.4-25.6 12.8l-50.6 67c-29-176.4-182.6-311.2-367-311.2-111.4 0-216 49.2-286.8 135.2-11.2 13.6-9.4 33.8 4.2 45s33.8 9.4 45-4.2c58.8-71.2 145.4-112 237.6-112 158 0 288.6 119.6 306 273l-86.2-65c-14.2-10.6-34.2-7.8-44.8 6.2-10.6 14.2-7.8 34.2 6.2 44.8l138.4 104.2c6.8 5.2 15.2 7.4 23.8 6.2 8.4-1.2 16-5.6 21.2-12.4l104.2-138.4c10.6-14 7.8-34.2-6.4-44.8zM319.8 518.2c14.8 9.6 19 29.4 9.4 44.2s-29.4 19-44.2 9.4l-88.8-57.6c12.6 57.4 41.4 110 84 152.4 58 57.6 135 89.2 216.6 89.2 0.4 0 1 0 1.4 0 91.6-0.4 177.6-41.2 236-111.8 11.2-13.6 31.4-15.6 45-4.2 13.6 11.2 15.6 31.4 4.2 45-70.2 85.2-174 134.6-284.8 135-99.2 0.4-193-37.8-263.4-107.8-48.4-48-82-106.8-98.4-171.2l-47.2 72.6c-9.6 14.8-29.4 19-44.2 9.4s-19-29.4-9.4-44.2l91.2-140.6c4.6-12 16.2-20.4 29.6-20.4 0 0 0.2 0 0.2 0 9.2 0 17.6 4 23.4 10.2l139.4 90.4z" />
<glyph unicode="&#xe915;" glyph-name="it732_Save" data-tags="it732_Save" d="M886.6 696l-126.6 126.6c-6 6-14.2 9.4-22.6 9.4h-577.4c-17.6 0-32-14.4-32-32v-704c0-8.4 3.4-16.6 9.4-22.6s14.2-9.4 22.6-9.4h127.6c0 0 0 0 0 0h447.6c0 0 0 0 0 0h128.6c17.6 0 32 14.4 32 32v577.2c0.2 8.6-3.2 16.8-9.2 22.8zM544.4 768v-191.6h-225.6v191.6h225.6zM703.4 128h-383.8v256.6h383.6v-256.6zM832 128h-64.6v288.6c0 17.6-14.4 32-32 32h-447.8c-17.6 0-32-14.4-32-32v-288.6h-63.6v640h62.8v-223.6c0-17.6 14.4-32 32-32h385.2c17.6 0 32 14.4 32 32v223.6h20l108-108v-532z" />
<glyph unicode="&#xe916;" glyph-name="it732_Star" data-tags="it732_Star" d="M914 541.4c-4 12.2-14.4 21-27 22.8l-238.4 34.6-106.6 216c-5.6 11.4-17.2 18.6-30 18.6s-24.4-7.2-30-18.6l-106.6-216-238.4-34.6c-12.6-1.8-23-10.6-27-22.8s-0.6-25.4 8.4-34.2l172.4-168.2-40.8-237.4c-2.2-12.6 3-25.2 13.4-32.8 10.4-7.4 24-8.4 35.2-2.6l213.2 112 213.2-112c4.8-2.6 10.2-3.8 15.6-3.8 7 0 13.8 2.2 19.6 6.4 10.4 7.4 15.4 20.2 13.4 32.8l-40.8 237.4 172.4 168.2c9.4 8.8 12.6 22.2 8.8 34.2zM673.8 374.6c-7.8-7.6-11.4-18.8-9.6-29.6l32.2-187.8-168.8 88.8c-4.8 2.6-10.2 3.8-15.6 3.8s-10.6-1.2-15.6-3.8l-168.8-88.8 32.2 187.8c1.8 10.8-1.8 22-9.6 29.6l-136.6 133 188.6 27.4c10.8 1.6 20.4 8.4 25.2 18.4l84.4 171 84.4-171c4.8-9.8 14.2-16.8 25.2-18.4l188.6-27.4-136.2-133z" />
<glyph unicode="&#xe917;" glyph-name="it732_Trash" data-tags="it732_Trash" d="M607.2 213.8v370.2c0 18 14.6 32.8 32.8 32.8s32.8-14.6 32.8-32.8v-370c0-18-14.6-32.8-32.8-32.8s-32.8 14.6-32.8 32.6zM896.8 715.6c0-18-14.6-32.8-32.8-32.8h-63.2v-602.8c0-18-14.6-32.8-32.8-32.8h-512c-18 0-32.8 14.6-32.8 32.8v603h-63.2c-18 0-32.8 14.6-32.8 32.8s14.8 32.6 32.8 32.6h223.2v67.6c0 18 14.6 32.8 32.8 32.8h192c18 0 32.8-14.6 32.8-32.8v-67.6h223.2c18 0 32.8-14.6 32.8-32.8zM448.8 748.4h126.6v34.8h-126.6v-34.8zM735.2 683h-446.4v-570.2h446.6v570.2zM384 181c18 0 32.8 14.6 32.8 32.8v370.2c0 18-14.6 32.8-32.8 32.8s-32.8-14.6-32.8-32.8v-370c0-18.2 14.8-33 32.8-33zM512 181c18 0 32.8 14.6 32.8 32.8v370.2c0 18-14.6 32.8-32.8 32.8s-32.8-14.6-32.8-32.8v-370c0-18.2 14.8-33 32.8-33z" />
<glyph unicode="&#xe918;" glyph-name="it748_Calendar-check-2" data-tags="it748_Calendar-check-2" d="M399.2 128c0-17.8-14.4-32-32-32h-236.4c-28.4 0-51.6 23.6-51.6 52.4v631.2c0 29 23 52.4 51.6 52.4h140.4v32c0 17.8 14.4 32 32 32s32-14.4 32-32v-32h255.8v32c0 17.8 14.4 32 32 32s32-14.4 32-32v-32h140.4c28.4 0 51.6-23.6 51.6-52.4v-395.6c0-17.8-14.4-32-32-32s-32 14.4-32 32v384h-127.8v-32c0-17.8-14.4-32-32-32s-32 14.4-32 32v32h-256v-32c0-17.8-14.4-32-32-32s-32 14.4-32 32v32h-128v-608h224c17.6 0 32-14.2 32-32zM415.2 592c0-26.6 21.4-48 48-48s48 21.4 48 48-21.4 48-48 48-48-21.4-48-48zM639.2 640c-26.6 0-48-21.4-48-48s21.4-48 48-48 48 21.4 48 48-21.6 48-48 48zM287.2 480c-26.6 0-48-21.4-48-48s21.4-48 48-48 48 21.4 48 48-21.6 48-48 48zM511.2 432c0 26.6-21.4 48-48 48s-48-21.4-48-48 21.4-48 48-48 48 21.4 48 48zM639.2 480c-26.6 0-48-21.4-48-48s21.4-48 48-48 48 21.4 48 48-21.6 48-48 48zM287.2 320c-26.6 0-48-21.4-48-48s21.4-48 48-48 48 21.4 48 48-21.6 48-48 48zM935.4 309c-12.4 12.4-32.8 12.4-45.2 0l-231.8-231.8-108.6 108.6c-12.4 12.4-32.8 12.4-45.2 0s-12.4-32.8 0-45.2l131.2-131.2c6.2-6.2 14.4-9.4 22.6-9.4s16.4 3.2 22.6 9.4l254.4 254.4c12.6 12.4 12.6 32.6 0 45.2z" />
<glyph unicode="&#xe919;" glyph-name="it748_Calendar-check" data-tags="it748_Calendar-check" d="M399.2 144c0-17.8-14.4-32-32-32h-236.4c-28.4 0-51.6 23.6-51.6 52.4v599.2c0 29 23 52.4 51.6 52.4h140.4v32c0 17.8 14.4 32 32 32s32-14.4 32-32v-32h255.8v32c0 17.8 14.4 32 32 32s32-14.4 32-32v-32h140.4c28.4 0 51.6-23.6 51.6-52.4v-363.6c0-17.8-14.4-32-32-32s-32 14.4-32 32v352h-127.8v-32c0-17.8-14.4-32-32-32s-32 14.4-32 32v32h-256v-32c0-17.8-14.4-32-32-32s-32 14.4-32 32v32h-128v-576h224c17.6 0 32-14.2 32-32zM687.2 479.8v0c-17.6 0-32-14.4-32-32s14.4-32 32-32c17.6 0 32 14.4 32 32s-14.4 32-32 32zM388.6 479.8v0c-17.6 0-32-14.4-32-32v0c0-17.6 14.4-32 32-32v0c17.6 0 32 14.4 32 32v0c0 17.8-14.4 32-32 32zM271.2 447.8c0 17.6-14.4 32-32 32s-32-14.4-32-32v0c0-17.6 14.4-32 32-32s32 14.4 32 32v0zM388.6 335.8v0c-17.6 0-32-14.4-32-32s14.4-32 32-32v0c17.6 0 32 14.4 32 32s-14.4 32-32 32zM239.2 335.8c-17.6 0-32-14.4-32-32s14.4-32 32-32c17.6 0 32 14.4 32 32s-14.4 32-32 32zM569.8 447.8c0 17.6-14.4 32-32 32s-32-14.4-32-32v0c0-17.6 14.4-32 32-32 17.8 0 32 14.4 32 32v0zM687.2 624v0c-17.6 0-32-14.4-32-32s14.4-32 32-32c17.6 0 32 14.4 32 32s-14.4 32-32 32zM388.6 624v0c-17.6 0-32-14.4-32-32s14.4-32 32-32v0c17.6 0 32 14.4 32 32s-14.4 32-32 32zM537.8 624c-17.6 0-32-14.4-32-32s14.4-32 32-32c17.6 0 32 14.4 32 32s-14.2 32-32 32zM537.8 335.8c-17.6 0-32-14.4-32-32s14.4-32 32-32c17.6 0 32 14.4 32 32s-14.2 32-32 32zM935.4 325c-12.4 12.4-32.8 12.4-45.2 0l-231.8-231.8-108.6 108.6c-12.4 12.4-32.8 12.4-45.2 0s-12.4-32.8 0-45.2l131.2-131.2c6.2-6.2 14.4-9.4 22.6-9.4s16.4 3.2 22.6 9.4l254.4 254.4c12.6 12.4 12.6 32.6 0 45.2z" />
<glyph unicode="&#xe91a;" glyph-name="it748_Clock" data-tags="it748_Clock" d="M512 864c-229.4 0-416-186.6-416-416s186.6-416 416-416 416 186.6 416 416-186.6 416-416 416zM512 96c-194 0-352 158-352 352s158 352 352 352 352-158 352-352-158-352-352-352zM536.6 703.4v-264.4c0-10.4-5-20.2-13.4-26.2l-152.6-108.2c-5.6-4-12-6-18.4-6-10 0-19.8 4.6-26.2 13.4-10.2 14.4-6.8 34.4 7.6 44.6l139 98.6v248c0 17.6 14.4 32 32 32 17.8 0.2 32-14 32-31.8z" />
<glyph unicode="&#xe91b;" glyph-name="it748_Cog-2" data-tags="it748_Cog-2-24" d="M901.2 534.4l-82.8 13.6c-5 15.6-11.4 30.8-18.6 45.4l48.8 69c9 12.8 7.6 30-3.4 41l-77.2 77.4c-11 11-28.4 12.6-41.2 3.4l-68.8-48.8c-14.6 7.4-29.6 13.6-45.2 18.6l-13.6 83c-2.6 15.4-16 26.8-31.6 26.8h-111.2c-15.6 0-29-11.4-31.6-26.8l-13.6-83c-15.6-5-30.6-11.4-45.2-18.6l-68.8 48.8c-12.8 9-30.2 7.6-41.2-3.4l-77.2-77.4c-11-11-12.4-28.4-3.4-41l48.8-69c-7.4-14.6-13.6-29.8-18.6-45.4l-82.8-13.6c-15.4-2.6-26.8-16-26.8-31.6v-109.6c0-15.6 11.4-29 26.8-31.6l82.8-13.6c5.2-15.8 11.4-31 19-45.8l-49-68.4c-9.2-12.8-7.6-30.2 3.4-41.2l77.2-77.4c11-11.2 28.6-12.6 41.4-3.4l68.2 49c14.6-7.4 29.6-13.6 45-18.8l14.2-83.4c2.6-15.4 16-26.6 31.6-26.6h111.2c15.6 0 29 11.2 31.6 26.6l14.2 83.4c15.6 5 30.6 11.4 45 18.8l68.2-49c12.8-9.2 30.2-7.8 41.4 3.4l77.2 77.4c11 11 12.4 28.6 3.4 41.2l-49 68.4c7.4 14.8 13.8 30 19 45.8l82.8 13.6c15.4 2.6 26.8 16 26.8 31.6v109.6c-0.4 15.6-11.8 29-27.2 31.6zM864 420.4l-75.8-12.4c-12.6-2-22.6-11.4-25.8-23.8-6-24-15.6-46.8-28-68-6.4-11-6-24.6 1.4-35l44.8-62.6-39-39-62.4 44.8c-10.4 7.4-24.2 8-35 1.6-20.8-12.4-43.4-21.8-67.2-28-12.2-3.2-21.4-13.2-23.6-25.6l-13-76.4h-57.2l-13 76.4c-2.2 12.4-11.4 22.4-23.6 25.6-23.6 6.2-46.2 15.6-67.2 28-11 6.6-24.8 6-35-1.6l-62.4-44.8-39 39 44.8 62.6c7.4 10.4 8 24 1.4 35-12.6 21.2-22 44-28 68-3.2 12.4-13.2 21.6-25.8 23.8l-75.4 12.4v55.2l75.8 12.4c12.6 2 22.6 11.4 25.8 23.8 6 23.8 15.4 46.4 27.8 67.4 6.4 10.8 5.8 24.4-1.4 34.8l-44.8 63.2 39.2 39.2 63-44.8c10.4-7.4 24-7.8 34.8-1.4 20.8 12.4 43.4 21.8 67.2 27.8 12.4 3.2 21.6 13.2 23.6 25.8l12.4 76.2h56.8l12.4-76.2c2-12.6 11.4-22.6 23.6-25.8 23.8-6 46.4-15.4 67.2-27.8 10.8-6.4 24.6-6 34.8 1.4l63 44.8 39.2-39.2-44.4-63.2c-7.2-10.2-7.8-24-1.4-34.8 12.4-21 21.8-43.6 27.8-67.4 3.2-12.4 13.2-21.6 25.8-23.8l75.8-12.4v-55.2zM515.4 609.2c-1.2 0-2.2 0.2-3.4 0-1.2 0-2.4 0-3.4 0-87.6-2.4-158.4-74.2-158.4-161.2s71-158.8 158.4-161.2c1.2 0 2.2-0.2 3.4 0 0.4 0 0.6 0 1 0 0.8 0 1.6 0 2.4 0 87.6 2.4 158.4 74.2 158.4 161.2 0.2 87-70.8 158.8-158.4 161.2zM512.4 350.8c-0.2 0-0.4 0-0.4 0-0.2 0-0.4 0-0.4 0-53.8 0.8-97.4 44.4-97.4 97.2s43.8 96.4 97.4 97.2c0.2 0 0.4 0 0.4 0 0.2 0 0.4 0 0.4 0 53.8-0.8 97.4-44.4 97.4-97.2 0.2-52.8-43.6-96.4-97.4-97.2z" />
<glyph unicode="&#xe91c;" glyph-name="it748_Cog" data-tags="it748_Cog" d="M512 604c-89 0-161.4-70-161.4-155.8s72.4-155.8 161.4-155.8c89 0 161.4 70 161.4 155.8s-72.4 155.8-161.4 155.8zM512 356.2c-53.8 0-97.4 41.2-97.4 91.8s43.6 92 97.4 92 97.4-41.2 97.4-91.8-43.8-92-97.4-92zM901.6 383.8l-49.4 27.2c3 24.8 3 49.6 0 74.4l49.2 27.2c21 11.6 31.2 36.4 24 59.2l-0.2 0.4c-19 58.6-52.2 113.4-95.8 158.8-16.4 16.8-42 20.8-62.4 9.4l-50.6-28c-21.4 15.4-44.6 28.2-69.2 38.4v53.8c0 23.8-17 44.6-40.6 49.4-62.2 13.2-127.8 13.2-189.8 0-23.6-5-40.6-25.8-40.6-49.4v-54c-24.6-10.2-47.6-23-69.2-38.4l-50.6 28c-20.6 11.4-46.4 7.4-62.4-9.6-43.6-45.2-76.8-100-95.8-158.6-7.6-23 2.6-48 23.8-59.8l49.4-27.2c-3-24.8-3-49.6 0-74.4l-49.2-27.2c-21-11.6-31.2-36.4-24.2-59.2l0.2-0.4c19-58.6 52.2-113.4 95.8-158.8 16.4-16.8 42-20.6 62.4-9.4l50.6 28c21.4-15.4 44.6-28.2 69.2-38.4v-54c0-23.8 17-44.6 40.6-49.4 31.2-6.6 63-10 95-10s63.8 3.4 94.8 10c23.6 5 40.6 25.8 40.6 49.4v54c24.6 10.2 47.6 23 69.2 38.4l50.8-28c20.6-11.4 46.4-7.4 62.4 9.6 43.6 45.2 76.8 100 95.8 158.8l0.4 1c6.8 23.2-3.2 47.4-24.2 58.8zM790.2 216.4l-79.6 44-16.8-13.6c-26.2-21.4-56-37.8-88.4-48.8l-21.6-7.4v-88c-47-8.8-96-8.8-143 0v88l-21.8 7.4c-32.4 10.8-62.2 27.2-88.2 48.8l-16.8 13.8-79.8-44c-31.2 34.2-55.6 74-71 116.6l79.4 44-4.4 22.8c-6.2 32-6.2 64.6 0 96.6l4.4 22.8-79.4 44c15.4 42.6 39.8 82.6 71 116.6l79.4-44 16.8 13.6c26.2 21.4 56 37.8 88.4 48.8l21.6 7.4v88c47 8.8 96 8.8 143 0v-87.8l21.8-7.4c32.4-10.8 62.2-27.2 88.2-48.8l16.8-13.8 79.8 44c31.2-34.2 55.6-74 71-116.6l-79.4-44 4.4-22.8c6.2-32 6.2-64.6 0-96.6l-4.4-22.8 79.6-44c-15.6-42.8-39.8-82.8-71-116.8z" />
<glyph unicode="&#xe91d;" glyph-name="it748_Copy" data-tags="it748_Copy" d="M710.4 96c0-17.6-14.4-32-32-32h-470.8c-17.6 0-32 14.4-32 32v576c0 17.6 14.4 32 32 32s32-14.4 32-32v-544h438.8c17.6 0 32-14.4 32-32zM848.4 640.8v-416.8c0-17.6-14.4-32-32-32h-480.8c-17.6 0-32 14.4-32 32v576c0 17.6 14.4 32 32 32h320.2c1 0 2.2 0 3.2-0.2 0.6 0 1.4-0.2 2-0.4 0.4 0 0.8 0 1-0.2 0.8-0.2 1.6-0.4 2.4-0.6 0.2 0 0.4 0 0.6-0.2 0.8-0.2 1.6-0.6 2.4-0.8 0.2 0 0.4-0.2 0.6-0.2 0.8-0.4 1.4-0.6 2.2-1 0.2-0.2 0.4-0.2 0.8-0.4 0.6-0.4 1.2-0.8 1.8-1 0.2-0.2 0.6-0.4 0.8-0.6 0.6-0.4 1-0.8 1.6-1.2 0.4-0.2 0.6-0.4 1-0.6 0.6-0.4 1-0.8 1.4-1.4 0.2-0.2 0.6-0.4 0.8-0.8l160.6-159.2c6-5.6 9.4-13.8 9.4-22.4zM687.8 672.8h50.8l-50.8 50.4v-50.4zM784.4 256v352.8h-128.6c-17.6 0-32 14.4-32 32v127.2h-256.2v-512h416.8z" />
<glyph unicode="&#xe91e;" glyph-name="it748_Creditcard" data-tags="it748_Creditcard" d="M896 735.8h-768c-17.6 0-31.8-14.2-31.8-31.8v-512c0-17.6 14.2-31.8 31.8-31.8h768c17.6 0 31.8 14.2 31.8 31.8v512c0 17.6-14.2 31.8-31.8 31.8zM864.2 672.2v-63.2h-704.4v63.2h704.4zM159.8 223.8v289.2h704.4v-289.2h-704.4zM607.8 352.2c0-17.6-14.2-31.8-31.8-31.8h-319.6c-17.6 0-31.8 14.2-31.8 31.8s14.2 31.8 31.8 31.8h319.6c17.6 0 31.8-14.2 31.8-31.8zM784 352.2c0-26.6-21.4-48-48-48s-48 21.4-48 48 21.4 48 48 48v0c26.6 0 48-21.4 48-48z" />
<glyph unicode="&#xe91f;" glyph-name="it748_Doc-clock" data-tags="it748_Doc-clock" d="M624 688c0-17.6-14.4-32-32-32h-320c-17.6 0-32 14.4-32 32s14.4 32 32 32h320c17.6 0 32-14.4 32-32zM592 592h-320c-17.6 0-32-14.4-32-32s14.4-32 32-32h320c17.6 0 32 14.4 32 32s-14.4 32-32 32zM400 464h-128c-17.6 0-32-14.4-32-32s14.4-32 32-32h128c17.6 0 32 14.4 32 32s-14.4 32-32 32zM336 176h-160v640h512v-224c0-17.6 14.4-32 32-32s32 14.4 32 32v236c0 28.6-23.4 52-52 52h-536c-28.6 0-52-23.4-52-52v-664c0-28.6 23.4-52 52-52h172c17.6 0 32 14.4 32 32s-14.4 32-32 32zM912 240c0-123.6-100.4-224-224-224s-224 100.4-224 224 100.4 224 224 224 224-100.4 224-224zM848 240c0 88.2-71.8 160-160 160s-160-71.8-160-160 71.8-160 160-160 160 71.8 160 160zM688 348.8c-17.6 0-32-14.4-32-32v-66.8l-27.6-24.4c-13.2-11.6-14.6-32-2.8-45.2 6.4-7.2 15.2-10.8 24-10.8 7.6 0 15 2.6 21.2 8l38.4 33.8c6.8 6 10.8 14.8 10.8 24v81.4c0 17.6-14.4 32-32 32z" />
<glyph unicode="&#xe920;" glyph-name="it748_Doc-cog-2" data-tags="it748_Doc-cog-2" d="M623.4 688c0-17.6-14.4-32-32-32h-320c-17.6 0-32 14.4-32 32s14.4 32 32 32h320c17.8 0 32-14.4 32-32zM591.4 592h-320c-17.6 0-32-14.4-32-32s14.4-32 32-32h320c17.6 0 32 14.4 32 32s-14.2 32-32 32zM431.4 464h-160c-17.6 0-32-14.4-32-32s14.4-32 32-32h160c17.6 0 32 14.4 32 32s-14.2 32-32 32zM367.4 176h-192v640h512v-224c0-17.6 14.4-32 32-32s32 14.4 32 32v236c0 28.6-23.4 52-52 52h-536c-28.6 0-52-23.4-52-52v-664c0-28.6 23.4-52 52-52h204c17.6 0 32 14.4 32 32s-14.2 32-32 32zM904.6 267.4v-54.8c0-11.8-8.6-21.8-20-23.6l-36.6-6c-1.8-5.2-4-10.2-6.2-15l21.6-30.2c6.8-9.6 5.8-22.6-2.6-31l-38.6-38.8c-8.4-8.4-21.4-9.4-31-2.6l-30.2 21.8c-4.8-2.2-9.6-4.2-14.6-6l-6.4-37.2c-2-11.6-12-20-23.6-20h-55.6c-11.8 0-21.8 8.4-23.6 20l-6.2 37c-5 1.8-9.8 3.8-14.6 6l-30.4-21.6c-9.6-6.8-22.6-5.8-31 2.6l-38.6 38.8c-8.2 8.4-9.4 21.4-2.6 31l21.6 30.2c-2.4 5-4.4 10-6.2 15l-36.6 6c-11.6 2-20 12-20 23.6v54.8c0 11.8 8.6 21.8 20 23.6l36.6 6c1.8 5 3.8 10 6.2 14.8l-21.6 30.6c-6.8 9.6-5.6 22.6 2.6 30.8l38.6 38.8c8.2 8.2 21.4 9.4 30.8 2.6l30.4-21.6c4.8 2.2 9.6 4.2 14.6 6l6 36.8c2 11.6 12 20.2 23.6 20.2h55.6c11.8 0 21.8-8.6 23.6-20.2l6-36.8c5-1.8 9.8-3.8 14.6-6l30.4 21.6c9.6 6.8 22.6 5.6 30.8-2.6l38.6-38.8c8.2-8.2 9.4-21.2 2.6-30.8l-20.8-30.4c2.2-4.8 4.4-9.8 6.2-14.8l36.6-6c11.4-2 20-12 20-23.8zM856.6 247l-31.2 5.2c-9.4 1.6-17 8.6-19.4 17.8-2.8 11.2-7.2 21.8-13 31.6-4.8 8.2-4.4 18.4 1 26l18.4 26.2-10 10-26-18.4c-7.8-5.6-18-6-26.2-1-9.8 5.8-20.4 10.2-31.6 13-9.2 2.4-16.2 10-17.8 19.4l-4.8 31.2h-14.8l-5.2-31.4c-1.6-9.4-8.6-17-17.8-19.4-11.2-2.8-21.8-7.2-31.6-13-8.2-4.8-18.4-4.4-26.2 1l-26 18.4-10-10 18.4-26.2c5.4-7.8 5.8-18 1-26-5.8-9.8-10.2-20.4-13-31.6-2.4-9.2-10-16.2-19.4-17.8l-31.2-5.2v-14l31.2-5.2c9.4-1.6 17-8.6 19.4-17.8 2.8-11.2 7.2-22 13.2-31.8 4.8-8.2 4.4-18.4-1.2-26.2l-18.4-25.8 9.8-9.8 25.6 18.4c7.8 5.6 18 6 26.4 1.2 9.8-5.8 20.4-10.2 31.4-13.2 9.2-2.4 16-9.8 17.6-19.2l5.4-31.6h15l5.4 31.6c1.6 9.4 8.6 16.8 17.6 19.2 11.2 2.8 21.6 7.2 31.4 13.2 8.2 4.8 18.6 4.4 26.4-1.2l25.6-18.4 9.8 9.8-17.8 26c-5.6 7.8-6 18-1.2 26.2 5.8 10 10.4 20.6 13.2 31.8 2.4 9.2 10 16.2 19.4 17.8l31.2 5.2v14zM777.6 240c0-47.8-38.8-87.2-86.8-88.6-0.6 0-1 0-1.6 0-0.2 0-0.4 0-0.4 0-0.8 0-1.4 0-2.2 0-48 1.4-86.8 40.8-86.8 88.6s38.8 87.2 86.8 88.6c0.8 0 1.4 0 2.2 0s1.4 0 2.2 0c47.6-1.4 86.6-40.8 86.6-88.6zM729.6 240c0 22-18.4 40.2-40.8 40.6 0 0 0 0-0.2 0 0 0 0 0-0.2 0-22.6-0.4-40.8-18.6-40.8-40.6s18.4-40.2 40.8-40.6c0 0 0.2 0 0.2 0 22.6 0.4 41 18.6 41 40.6z" />
<glyph unicode="&#xe921;" glyph-name="it748_Doc-cog" data-tags="it748_Doc-cog" d="M624 688c0-17.6-14.4-32-32-32h-320c-17.6 0-32 14.4-32 32s14.4 32 32 32h320c17.6 0 32-14.4 32-32zM592 592h-320c-17.6 0-32-14.4-32-32s14.4-32 32-32h320c17.6 0 32 14.4 32 32s-14.4 32-32 32zM432 464h-160c-17.6 0-32-14.4-32-32s14.4-32 32-32h160c17.6 0 32 14.4 32 32s-14.4 32-32 32zM368 176h-192v640h512v-256c0-17.6 14.4-32 32-32s32 14.4 32 32v268c0 28.6-23.4 52-52 52h-536c-28.6 0-52-23.4-52-52v-664c0-28.6 23.4-52 52-52h204c17.6 0 32 14.4 32 32s-14.4 32-32 32zM776.8 240c0-47.4-39.8-85.8-88.6-85.8-49 0-88.6 38.6-88.6 85.8 0 47.4 39.8 85.8 88.6 85.8 48.8 0.2 88.6-38.4 88.6-85.8zM728.8 240c0 20.8-18.2 37.8-40.6 37.8s-40.6-17-40.6-37.8 18.2-37.8 40.6-37.8 40.6 17 40.6 37.8zM902.8 176.4c0-0.2-0.2-0.6-0.2-0.8-9.8-30.4-27-59-49.8-82.4-10.6-11-27.2-13.6-40.8-6.2l-21 11.6c-8.6-5.8-17.6-10.8-27-15v-21.8c0-15.6-11.2-29.4-26.8-32.6-16-3.4-32.6-5.2-49-5.2-16.6 0-33.2 1.8-49.2 5.2-15.4 3.2-26.6 16.8-26.6 32.6v21.6c-9.4 4.2-18.6 9.2-27.2 15l-21-11.6c-13.4-7.4-30.2-5-40.8 6.2-22.6 23.6-40 52-49.8 82.4 0 0.2 0 0.2-0.2 0.4-4.6 15 2 31.4 15.8 39l20 11c-0.8 9.4-0.8 18.8 0 28.2l-20 11c-14 7.6-20.6 24.2-15.6 39.4 9.8 30.4 27 58.8 49.8 82.2 10.6 11 27.2 13.6 40.8 6.2l21-11.6c8.6 5.8 17.6 10.8 27 15v21.8c0 15.6 11.2 29.4 26.6 32.6 32 6.8 66 6.8 98.2 0 15.4-3.2 26.6-16.8 26.6-32.6v-21.6c9.4-4.2 18.6-9.2 27.2-15l21 11.6c13.4 7.4 30.2 5 40.8-6.2 22.6-23.6 40-52 49.8-82.4 0-0.2 0-0.2 0.2-0.4 4.6-15-2-31.4-15.8-39l-20-11c0.8-9.4 0.8-18.8 0-28.2l20-11c13.6-7.4 20.2-23.4 16-38.4zM852.6 178.8l-23.6 13c-9.2 5-14 15.4-12 25.6 3 15 3 30.2 0 45.2-2 10.2 2.8 20.6 12 25.6l23.4 13c-6.6 16-15.8 31-27.2 44.6l-24.8-13.6c-8.6-4.8-19.2-3.8-26.8 2.4-12.2 10-26.2 17.8-41.6 23-9.8 3.2-16.4 12.4-16.4 22.8v25.6c-18.4 2.8-37.2 2.8-55.6 0v-26c0-10.2-6.6-19.4-16.2-22.8-15.4-5.2-29.4-13-41.8-23-7.6-6.2-18.2-7.2-26.8-2.4l-24.6 13.6c-11.4-13.4-20.6-28.4-27.2-44.6l23.4-13c9.2-5 14-15.4 12-25.6-3-15-3-30.2 0-45.2 2-10.2-2.8-20.6-12-25.6l-23.4-13c6.6-16 15.8-31 27.2-44.6l24.8 13.6c8.6 4.8 19.2 3.8 26.8-2.4 12.2-10 26.2-17.8 41.6-23 9.8-3.2 16.4-12.4 16.4-22.8v-25.8c18.4-2.8 37.2-2.8 55.6 0v25.8c0 10.2 6.6 19.4 16.2 22.8 15.4 5.2 29.4 13 41.8 23 7.6 6.2 18.2 7.2 26.8 2.4l24.8-13.6c11.4 14 20.6 29 27.2 45z" />
<glyph unicode="&#xe922;" glyph-name="it748_Envelope" data-tags="it748_Envelope" d="M927.8 707.2c0 0 0 0.2 0 0.2-0.2 1-0.2 2-0.4 2.8 0 0.4-0.2 0.8-0.4 1.2-0.2 0.6-0.2 1.2-0.4 1.8-0.2 0.4-0.4 1-0.6 1.4s-0.4 1-0.6 1.4c-0.2 0.6-0.6 1-0.8 1.6-0.2 0.4-0.4 0.8-0.6 1.2-0.4 0.8-1 1.8-1.6 2.6 0 0 0 0.2-0.2 0.2-0.6 0.8-1.2 1.8-2 2.6 0 0 0 0 0 0-0.2 0.2-0.4 0.4-0.6 0.6-0.4 0.6-1 1-1.4 1.6-0.4 0.4-0.8 0.8-1.2 1-0.4 0.4-0.8 0.6-1.2 1s-1 0.8-1.4 1c-0.4 0.2-0.8 0.6-1 0.8-0.4 0.4-1 0.6-1.4 1-0.4 0.2-0.8 0.4-1.2 0.6s-1 0.4-1.4 0.6c-0.4 0.2-1 0.4-1.4 0.6s-1 0.4-1.4 0.4c-0.6 0.2-1 0.4-1.6 0.6-0.4 0.2-1 0.2-1.4 0.4-0.6 0.2-1.2 0.2-1.6 0.4-0.6 0.2-1 0.2-1.6 0.2s-1 0.2-1.6 0.2c-0.8 0-1.6 0-2.4 0.2-0.2 0-0.6 0-0.8 0h-0.2c0 0 0 0 0 0h-767.2c0 0 0 0 0 0h-0.2c-0.2 0-0.6 0-0.8 0-0.8 0-1.4 0-2.2-0.2-0.6 0-1-0.2-1.6-0.2s-1-0.2-1.6-0.2c-0.6-0.2-1.2-0.2-1.8-0.4-0.4-0.2-0.8-0.2-1.4-0.4s-1-0.4-1.6-0.6c-0.4-0.2-0.8-0.4-1.4-0.4-0.4-0.2-1-0.4-1.4-0.6s-1-0.4-1.4-0.6c-0.4-0.2-0.8-0.4-1.2-0.8-0.4-0.2-1-0.6-1.4-0.8s-0.8-0.6-1-0.8c-0.4-0.4-1-0.6-1.4-1s-0.8-0.6-1.2-1c-0.4-0.4-0.8-0.6-1.2-1-0.6-0.6-1-1-1.4-1.6-0.2-0.2-0.4-0.4-0.6-0.6 0 0 0 0 0 0-0.6-0.8-1.4-1.6-2-2.6 0 0 0-0.2-0.2-0.2-0.6-0.8-1-1.6-1.6-2.6-0.2-0.4-0.4-0.8-0.6-1.2-0.2-0.6-0.6-1-0.8-1.6-0.2-0.4-0.4-1-0.6-1.4s-0.4-1-0.6-1.4c-0.2-0.6-0.4-1.2-0.4-1.8-0.2-0.4-0.2-0.8-0.4-1.2-0.2-1-0.4-2-0.4-2.8 0 0 0-0.2 0-0.2-0.2-1-0.2-2.2-0.2-3.2 0 0 0 0 0 0v-512c0-17.6 14.4-32 32-32h768c17.6 0 32 14.4 32 32v512c0 0 0 0 0 0 0.4 1.2 0.4 2.2 0.2 3.2zM807.6 672l-295.6-246.4-295.6 246.4h591.2zM160 224v411.6l331.6-276.2c6-5 13.2-7.4 20.4-7.4s14.6 2.4 20.4 7.4l331.6 276.2v-411.6h-704z" />
<glyph unicode="&#xe923;" glyph-name="it748_File" data-tags="it748_File" d="M832 624c0 0.2 0 0.6 0 0.8 0 0.8 0 1.6-0.2 2.4 0 0.8-0.2 1.4-0.4 2.2 0 0.4 0 0.6-0.2 1-0.2 0.8-0.4 1.8-0.6 2.6 0 0.2 0 0.4-0.2 0.4-0.2 0.8-0.6 1.8-1 2.6 0 0.2 0 0.2-0.2 0.4-0.4 0.8-0.8 1.6-1 2.4 0 0.2-0.2 0.4-0.2 0.6-0.4 0.6-0.8 1.4-1.2 2-0.2 0.2-0.2 0.4-0.4 0.6-0.4 0.6-0.8 1.2-1.4 1.8-0.2 0.2-0.4 0.6-0.6 0.8-0.6 0.6-1.2 1.4-1.8 2-0.2 0.2-0.2 0.2-0.4 0.4l-192 192c-0.2 0.2-0.2 0.2-0.4 0.4-0.6 0.6-1.2 1.2-2 1.8-0.2 0.2-0.4 0.4-0.8 0.6-0.6 0.4-1.2 1-1.8 1.4-0.2 0.2-0.4 0.2-0.6 0.4-0.6 0.4-1.4 0.8-2 1.2-0.2 0-0.4 0.2-0.4 0.2-0.8 0.4-1.6 0.8-2.4 1.2-0.2 0-0.2 0-0.4 0.2-0.8 0.4-1.8 0.6-2.6 1-0.2 0-0.2 0-0.4 0-0.8 0.2-1.8 0.4-2.6 0.6-0.2 0-0.6 0-0.8 0.2-0.8 0.2-1.6 0.2-2.4 0.4-1 0.2-2.2 0.2-3.2 0.2h-383.4c-17.6 0-32-14.4-32-32v-736c0-17.6 14.4-32 32-32h575.4c17.6 0 32 14.4 32 32l0.6 543.2c0 0 0 0 0 0s0 0 0 0zM640 738.8l82.8-82.8h-82.8v82.8zM256 112v672h320v-160c0-17.6 14.4-32 32-32h160l-0.6-480h-511.4z" />
<glyph unicode="&#xe924;" glyph-name="it748_Funnel" data-tags="it748_Funnel" d="M885.8 790.8c-10.2 24-35 39.4-62.8 39.4h-622c-28.2 0-53-15.8-63-40-9.4-22.4-4.2-47.4 13.2-65 0.4-0.4 0.8-0.8 1.2-1.2l251.6-225.4v-265.4c0-18.2 8.8-35.2 23.4-45.8l148.2-115.2c5.4-4.2 12-6.4 18.6-6.4 4.6 0 9 1 13.4 3 10.4 5 17 15.6 17 27.2v402.6l247.4 226.2c0.6 0.4 1 1 1.6 1.6 17 17.8 21.6 42.4 12.2 64.4zM574 534.4c-6.2-5.8-9.8-13.8-9.8-22.4v-354.2l-99.4 77.2v277c0 8.6-3.6 16.8-10 22.6l-260.4 233c1 0.8 3 2 6.6 2h621.8c3.4 0 5.4-1 6.4-2l-255.2-233.2z" />
<glyph unicode="&#xe925;" glyph-name="it748_Home" data-tags="it748_Home" d="M918.6 438.6l-96 96c0 0 0 0 0 0l-288 288c-12.4 12.4-32.8 12.4-45.2 0l-384-384c-12.4-12.4-12.4-32.8 0-45.2 6.2-6.2 14.4-9.4 22.6-9.4s16.4 3.2 22.6 9.4l41.4 41.4 0.6-338.8c0-17.6 14.4-32 32-32h191.4c17.6 0 32 14.4 32 32v256h128v-256c0-17.6 14.4-32 32-32h192c17.6 0 32 14.4 32 32v338.8l41.4-41.4c12.4-12.4 32.8-12.4 45.2 0 12.6 12.4 12.6 32.8 0 45.2zM768 128h-128v256c0 17.6-14.4 32-32 32h-192c-17.6 0-32-14.4-32-32v-256h-127.4l-0.6 370.8 256 256 256-256v-370.8z" />
<glyph unicode="&#xe926;" glyph-name="it748_Mappin" data-tags="it748_Mappin" d="M512 32c-9.6 0-18.6 4.2-24.8 11.8-8.8 10.6-213.8 261-262 358-22 44.4-33.2 92.2-33.2 142.2 0 176.4 143.6 320 320 320s320-143.6 320-320c0-50-11.2-97.8-33.2-142.2-48.2-97-253.2-347.4-262-358-6.2-7.6-15.2-11.8-24.8-11.8zM512 800c-141.2 0-256-114.8-256-256 0-40 9-78.2 26.6-113.8 35.6-71.6 172.8-245 229.4-315.4 56.6 70.4 193.8 243.8 229.4 315.4 17.6 35.6 26.6 73.8 26.6 113.8 0 141.2-114.8 256-256 256zM512 384c-88.2 0-160 71.8-160 160s71.8 160 160 160 160-71.8 160-160-71.8-160-160-160zM512 640c-53 0-96-43-96-96s43-96 96-96 96 43 96 96-43 96-96 96z" />
<glyph unicode="&#xe927;" glyph-name="it748_Money" data-tags="it748_Money" d="M928 784.6h-705.8c-17.8 0-32.4-14.4-32.4-32.4v-480.6c0-17.8 14.4-32.4 32.4-32.4h705.8c17.8 0 32.4 14.4 32.4 32.4v480.6c0 17.8-14.6 32.4-32.4 32.4zM895.6 304h-641v415.8h641v-415.8zM575.2 432c53 0 96 43 96 96s-43 96-96 96-96-43-96-96 43-96 96-96zM575.2 560.2c17.6 0 32-14.4 32-32s-14.4-32-32-32-32 14.4-32 32c0 17.6 14.2 32 32 32zM320 512c0 26.6 21.4 48 48 48s48-21.4 48-48-21.4-48-48-48c-26.6 0-48 21.4-48 48zM834.8 143.8c0-17.6-14.4-32-32-32h-706.8c-17.6 0-32 14.4-32 32v511.6c0 17.6 14.4 32 32 32s32-14.4 32-32v-479.6h674.8c17.6 0 32-14.4 32-32zM736 512c0 26.6 21.4 48 48 48s48-21.4 48-48-21.4-48-48-48c-26.6 0-48 21.4-48 48z" />
<glyph unicode="&#xe928;" glyph-name="it748_People" data-tags="it748_People" d="M677.4 448c48.6 0 93 20.2 125.2 56.6 31 35.2 48 82.6 48 133.8s-17 99.2-47.8 135c-32.2 37.8-76.8 58.6-125.4 58.6s-93-20.8-125.4-58.6c-30.6-35.8-47.4-83.6-47.4-135 0.2-108.4 74.4-190.4 172.8-190.4zM677.4 768c62.2 0 109.2-55.6 109.2-129.4 0-35.6-11.4-68.2-32-91.6-20.2-23-46.8-35-77.2-35-30.2 0-56.8 12-76.8 35-20.4 23.4-31.8 56-31.8 91.6 0 73.8 46.6 129.4 108.6 129.4zM672 384c-176.4 0-320-129.2-320-288 0-17.6 14.4-32 32-32h576c17.6 0 32 14.4 32 32 0 158.8-143.6 288-320 288zM418.6 128c17.8 108.4 124.6 192 253.4 192s235.6-83.6 253.4-192h-506.8zM301.6 384c84.8 0 146.4 65.6 146.4 155.8 0 43.2-14.2 83.8-40 114.2-27.4 32.2-65.2 50-106.4 50s-78.4-18-104.6-50.8c-23.8-29.8-37-70-37-113.4 0-91.6 58.2-155.8 141.6-155.8zM247 613.4c9.8 12.2 27.2 26.6 54.6 26.6 47 0 82.4-43 82.4-100.2 0-55-33.2-91.8-82.4-91.8-47.2 0-77.6 36-77.6 91.8 0 29 8.2 55 23 73.6zM320 288c0-17.6-14.4-32-32-32-55.4 0-105.2-16-139.8-45.2-26-21.8-42.8-50.2-49.2-82.8h157c17.6 0 32-14.4 32-32s-14.4-32-32-32h-192c-17.6 0-32 14.4-32 32 0 65 26.6 123.2 75.2 163.8 46 38.8 110.2 60.2 180.8 60.2 17.6 0 32-14.4 32-32z" />
<glyph unicode="&#xe929;" glyph-name="it748_Person-search" data-tags="it748_Person-search" d="M918.6 86.6l-85.6 85.6c19.6 28.4 31 62.8 31 99.6 0 97-79 176-176 176s-176-79-176-176 79-176 176-176c37 0 71.4 11.4 99.6 31l85.6-85.6c6.2-6.2 14.4-9.4 22.6-9.4s16.4 3.2 22.6 9.4c12.8 12.6 12.8 33 0.2 45.4zM688 160c-61.8 0-112 50.2-112 112s50.2 112 112 112 112-50.2 112-112-50.2-112-112-112zM453.4 477c48.6 0 93.2 20.8 125.6 58.4 30.8 35.8 47.8 83.8 47.8 135s-17 99.2-47.8 135c-32.4 37.8-77 58.6-125.6 58.6s-93-20.8-125.4-58.6c-30.6-35.8-47.4-83.6-47.4-135s16.8-99.2 47.4-135c32.4-37.6 76.8-58.4 125.4-58.4zM453.4 800c62.2 0 109.2-55.6 109.2-129.4s-47-129.4-109.2-129.4c-62 0-108.6 55.6-108.6 129.4s46.6 129.4 108.6 129.4zM480 128c0-17.6-14.4-32-32-32h-320c-17.6 0-32 14.4-32 32 0 73.2 33.4 143.2 94.2 197 58.6 51.8 138 84.2 223.4 91 17.6 1.4 33-11.8 34.4-29.4s-11.8-33-29.4-34.4c-71.6-5.6-137.6-32.4-186-75.2-37.6-33.2-61.6-74-69.6-117h285c17.6 0 32-14.4 32-32z" />
<glyph unicode="&#xe92a;" glyph-name="it748_Person" data-tags="it748_Person" d="M511.6 447.8c48.6 0 93 20.6 125.4 58 30.8 35.6 47.8 83.2 47.8 134.2s-16.8 98.6-47.6 134c-32.4 37.4-77 58-125.4 58s-93-20.6-125.2-58c-30.6-35.6-47.4-83.2-47.4-134s16.8-98.6 47.4-134c32-37.6 76.6-58.2 125-58.2zM511.6 768c62.2 0 109.2-55 109.2-128s-47-128-109.2-128c-62 0-108.6 55-108.6 128s46.8 128 108.6 128zM765.4 301.6c-64.8 54-152.4 82.4-253.4 82.4s-188.6-28.4-253.4-82.4c-63.6-52.8-98.6-126-98.6-205.6 0-17.6 14.4-32 32-32h640c17.6 0 32 14.4 32 32 0 79.6-35 152.8-98.6 205.6zM226.6 128c7.8 47.8 33 91.2 73 124.4 52.4 43.6 127.8 67.6 212.4 67.6s160-24 212.4-67.6c40-33.2 65.2-76.6 73-124.4h-570.8z" />
<glyph unicode="&#xe92b;" glyph-name="it748_Plus" data-tags="it748_Plus" d="M896 448c0-17.6-14.4-32-32-32h-320v-320c0-17.6-14.4-32-32-32s-32 14.4-32 32v320h-320c-17.6 0-32 14.4-32 32s14.4 32 32 32h320v320c0 17.6 14.4 32 32 32s32-14.4 32-32v-320h320c17.6 0 32-14.4 32-32z" />
<glyph unicode="&#xe92c;" glyph-name="it748_Refresh-2" data-tags="it748_Refresh-2" d="M932.8 182.8c-4.6-2.4-9.6-3.6-14.6-3.6-11.6 0-22.8 6.4-28.4 17.4l-44 85.4c-24.6-52.2-61-98.8-106-135.2-67-54.2-148-82.8-233.6-82.8-171.6 0-321.4 118.2-364.6 287.2-4.4 17.2 6 34.6 23.2 39s34.6-6 39-23.2c35.6-140.8 160-239 302.4-239 121.8 0 230 71.6 281.4 180.2l-88.8-33.2c-16.6-6.2-35 2.2-41.2 18.8s2.2 35 18.8 41.2l179.6 67 90.8-176.2c7.8-15.6 1.8-35-14-43zM339.6 563.8c17 4.8 27 22.4 22.4 39.4-4.8 17-22.4 27-39.4 22.4l-91.4-25.2c21.6 40.6 51.6 76.4 88 104.2 54.2 41.4 119 63.4 187 63.4s132.6-22 186.8-63.4c52.6-40.2 92.4-97.4 111.8-161.2 5.2-17 23-26.4 40-21.2s26.4 23 21.2 40c-23.4 76.6-71 145.2-134.2 193.6-65.6 49.8-143.6 76.2-225.6 76.2-82.2 0-160.2-26.6-225.8-76.6-43.4-33.2-79.6-76.2-105.4-124.6l-40.2 84.2c-7.6 16-26.6 22.8-42.6 15.2s-22.8-26.6-15.2-42.6l82.6-173.2 180 49.4z" />
<glyph unicode="&#xe92d;" glyph-name="it748_Refresh" data-tags="it748_Refresh" d="M960 314c-5.8-4.4-12.6-6.4-19.2-6.4-9.8 0-19.2 4.4-25.6 12.8l-50.6 67c-29-176.4-182.6-311.2-367-311.2-111.4 0-216 49.2-286.8 135.2-11.2 13.6-9.4 33.8 4.2 45s33.8 9.4 45-4.2c58.8-71.2 145.4-112 237.6-112 158 0 288.6 119.6 306 273l-86.2-65c-14.2-10.6-34.2-7.8-44.8 6.2-10.6 14.2-7.8 34.2 6.2 44.8l138.4 104.2c6.8 5.2 15.2 7.4 23.8 6.2 8.4-1.2 16-5.6 21.2-12.4l104.2-138.4c10.6-14 7.8-34.2-6.4-44.8zM319.8 518.2c14.8 9.6 19 29.4 9.4 44.2s-29.4 19-44.2 9.4l-88.8-57.6c12.6 57.4 41.4 110 84 152.4 58 57.6 135 89.2 216.6 89.2 0.4 0 1 0 1.4 0 91.6-0.4 177.6-41.2 236-111.8 11.2-13.6 31.4-15.6 45-4.2 13.6 11.2 15.6 31.4 4.2 45-70.2 85.2-174 134.6-284.8 135-99.2 0.4-193-37.8-263.4-107.8-48.4-48-82-106.8-98.4-171.2l-47.2 72.6c-9.6 14.8-29.4 19-44.2 9.4s-19-29.4-9.4-44.2l91.2-140.6c4.6-12 16.2-20.4 29.6-20.4 0 0 0.2 0 0.2 0 9.2 0 17.6 4 23.4 10.2l139.4 90.4z" />
<glyph unicode="&#xe92e;" glyph-name="it748_Save" data-tags="it748_Save" d="M886.6 696l-126.6 126.6c-6 6-14.2 9.4-22.6 9.4h-577.4c-17.6 0-32-14.4-32-32v-704c0-8.4 3.4-16.6 9.4-22.6s14.2-9.4 22.6-9.4h127.6c0 0 0 0 0 0h447.6c0 0 0 0 0 0h128.6c17.6 0 32 14.4 32 32v577.2c0.2 8.6-3.2 16.8-9.2 22.8zM544.4 768v-191.6h-225.6v191.6h225.6zM703.4 128h-383.8v256.6h383.6v-256.6zM832 128h-64.6v288.6c0 17.6-14.4 32-32 32h-447.8c-17.6 0-32-14.4-32-32v-288.6h-63.6v640h62.8v-223.6c0-17.6 14.4-32 32-32h385.2c17.6 0 32 14.4 32 32v223.6h20l108-108v-532z" />
<glyph unicode="&#xe92f;" glyph-name="it748_Star" data-tags="it748_Star" d="M914 541.4c-4 12.2-14.4 21-27 22.8l-238.4 34.6-106.6 216c-5.6 11.4-17.2 18.6-30 18.6s-24.4-7.2-30-18.6l-106.6-216-238.4-34.6c-12.6-1.8-23-10.6-27-22.8s-0.6-25.4 8.4-34.2l172.4-168.2-40.8-237.4c-2.2-12.6 3-25.2 13.4-32.8 10.4-7.4 24-8.4 35.2-2.6l213.2 112 213.2-112c4.8-2.6 10.2-3.8 15.6-3.8 7 0 13.8 2.2 19.6 6.4 10.4 7.4 15.4 20.2 13.4 32.8l-40.8 237.4 172.4 168.2c9.4 8.8 12.6 22.2 8.8 34.2zM673.8 374.6c-7.8-7.6-11.4-18.8-9.6-29.6l32.2-187.8-168.8 88.8c-4.8 2.6-10.2 3.8-15.6 3.8s-10.6-1.2-15.6-3.8l-168.8-88.8 32.2 187.8c1.8 10.8-1.8 22-9.6 29.6l-136.6 133 188.6 27.4c10.8 1.6 20.4 8.4 25.2 18.4l84.4 171 84.4-171c4.8-9.8 14.2-16.8 25.2-18.4l188.6-27.4-136.2-133z" />
<glyph unicode="&#xe930;" glyph-name="it748_Trash" data-tags="it748_Trash" d="M607.2 256v320c0 18 14.6 32.8 32.8 32.8s32.8-14.6 32.8-32.8v-320c0-18-14.6-32.8-32.8-32.8s-32.8 14.8-32.8 32.8zM512 223.2c18 0 32.8 14.6 32.8 32.8v320c0 18-14.6 32.8-32.8 32.8s-32.8-14.6-32.8-32.8v-320c0-18 14.8-32.8 32.8-32.8zM896.8 736c0-18-14.6-32.8-32.8-32.8h-63.2v-607.2c0-18-14.6-32.8-32.8-32.8h-512c-18 0-32.8 14.6-32.8 32.8v607.2h-63.2c-18 0-32.8 14.6-32.8 32.8s14.8 32.8 32.8 32.8h191.2v31.2c0 18 14.6 32.8 32.8 32.8h256c18 0 32.8-14.6 32.8-32.8v-31.2h191.2c18 0 32.8-14.8 32.8-32.8zM735.2 703.2h-446.4v-574.6h446.6v574.6zM384 223.2c18 0 32.8 14.6 32.8 32.8v320c0 18-14.6 32.8-32.8 32.8s-32.8-14.6-32.8-32.8v-320c0-18 14.8-32.8 32.8-32.8z" />
</font>
</defs>
</svg>
